<svg xmlns="http://www.w3.org/2000/svg" width="900" height="620" viewBox="0 0 900 620">
  <defs>
    <linearGradient id="bg" x1="0" y1="0" x2="1" y2="1">
      <stop offset="0" stop-color="#1b1a17"/>
      <stop offset="0.52" stop-color="#2c261b"/>
      <stop offset="1" stop-color="#0e0e0d"/>
    </linearGradient>
    <linearGradient id="gold" x1="0" y1="0" x2="1" y2="0">
      <stop offset="0" stop-color="#7a5428"/>
      <stop offset="0.44" stop-color="#d0a24d"/>
      <stop offset="1" stop-color="#65431f"/>
    </linearGradient>
    <linearGradient id="board" x1="0" y1="0" x2="1" y2="0">
      <stop offset="0" stop-color="#60442a"/>
      <stop offset="0.5" stop-color="#b78943"/>
      <stop offset="1" stop-color="#372719"/>
    </linearGradient>
    <filter id="shadow" x="-20%" y="-20%" width="140%" height="160%">
      <feDropShadow dx="0" dy="20" stdDeviation="18" flood-color="#000000" flood-opacity="0.34"/>
    </filter>
  </defs>
  <rect width="900" height="620" fill="url(#bg)"/>
  <rect x="28" y="28" width="844" height="564" rx="34" fill="none" stroke="#d7ad58" stroke-opacity="0.22"/>
  <g opacity="0.16">
    <path d="M-70 490 C135 390 220 536 398 415 C562 304 704 430 980 258" fill="none" stroke="#e1bd69" stroke-width="18"/>
    <path d="M-60 142 C150 66 255 188 425 96 C620 -8 748 91 970 -25" fill="none" stroke="#ffffff" stroke-width="10"/>
  </g>
  <g filter="url(#shadow)" transform="translate(140 178) skewY(-8)">
    <rect x="0" y="0" width="620" height="58" rx="10" fill="url(#board)"/>
    <rect x="0" y="78" width="620" height="58" rx="10" fill="url(#board)"/>
    <rect x="0" y="156" width="620" height="58" rx="10" fill="url(#board)"/>
    <rect x="0" y="234" width="620" height="58" rx="10" fill="url(#board)"/>
    <g opacity="0.24" stroke="#21170e" stroke-width="3">
      <line x1="40" y1="14" x2="570" y2="14"/>
      <line x1="30" y1="94" x2="585" y2="94"/>
      <line x1="44" y1="172" x2="558" y2="172"/>
      <line x1="36" y1="252" x2="590" y2="252"/>
    </g>
    <g opacity="0.28" stroke="#f4d17a" stroke-width="2">
      <line x1="20" y1="38" x2="600" y2="38"/>
      <line x1="25" y1="116" x2="610" y2="116"/>
      <line x1="18" y1="194" x2="600" y2="194"/>
      <line x1="30" y1="272" x2="585" y2="272"/>
    </g>
  </g>
  <rect x="293" y="516" width="314" height="48" rx="24" fill="#0f0f0e" fill-opacity="0.76" stroke="#d7ad58" stroke-opacity="0.28"/>
  <text x="450" y="548" text-anchor="middle" font-family="Arial, sans-serif" font-size="23" font-weight="700" fill="#e5c16f">Фото товара / тестовая заглушка</text>
</svg>
